<svg width="138" height="61" viewBox="0 0 138 61" fill="none" xmlns="http://www.w3.org/2000/svg">
<path fill-rule="evenodd" clip-rule="evenodd" d="M26.542 4.6665L26.7567 6.1915C19.9027 20.0538 28.6427 18.9253 28.6427 18.9253L29.7467 18.727L29.9153 19.0625C46.1533 17.2325 55.0313 25.6353 55.0313 25.6353C56.212 5.74925 26.542 4.6665 26.542 4.6665Z" fill="#F8B829"/>
<path d="M16.3453 51.4995C15.6553 56.0745 19.412 58.728 20.01 57.264C21.666 55.1137 22.2486 55.739 23.0766 52.506C23.3789 52.1045 23.729 51.7409 24.1193 51.4232C24.9575 50.5591 25.7651 49.6746 26.542 48.7697C28.8335 46.1916 30.7909 43.3379 32.3687 40.2755C34.1191 37.1833 34.7573 33.59 34.178 30.0885C33.5508 28.3172 32.6564 26.6512 31.5253 25.1475C31.18 24.3603 31.0226 23.5043 31.0653 22.6465C31.0273 21.3633 30.6405 20.1143 29.946 19.0322C29.5874 18.6477 29.3147 18.1922 29.1455 17.6955C28.9764 17.1987 28.9148 16.6721 28.9647 16.15C29.164 14.991 29.164 13.8472 29.3327 12.6882C29.4389 10.5225 29.04 8.36173 28.1673 6.37474C28.1673 6.37474 27.094 4.48375 26.1433 4.9565C24.4507 3.89065 22.4834 3.33627 20.4802 3.36063C18.477 3.385 16.5239 3.98705 14.858 5.09374C14.858 5.09374 -7.09935 19.0475 12.696 45.857C12.098 49.334 14.2293 52.9177 15.8853 55.2967" fill="#005D86"/>
<path d="M26.45 20.8928L23.4753 7.41181C23.4753 7.41181 21.7273 2.22681 17.1273 8.76906L16.3607 7.76256C12.1287 13.7253 6.39398 20.8776 7.66665 28.6246C7.85176 30.0545 8.34827 31.4271 9.12156 32.6465C9.89485 33.866 10.9263 34.903 12.144 35.6853C13.9384 36.9246 16.1108 37.5036 18.2878 37.3227C20.4649 37.1418 22.5106 36.2123 24.0733 34.6941C26.4653 32.7116 28.4126 28.6856 26.45 20.8928Z" fill="white"/>
<path fill-rule="evenodd" clip-rule="evenodd" d="M29.9153 19.1083C29.9153 19.1083 44.114 16.9123 55.0313 25.681C55.0313 25.681 44.758 12.2763 28.382 14.762C28.3973 14.762 27.2167 18.056 29.9153 19.1083Z" fill="#F19320"/>
<path d="M55.0313 25.6811C55.3199 22.222 54.4404 18.766 52.532 15.86C52.3786 15.6618 51.198 18.2238 51.1826 18.4526C51.1199 19.5211 51.3817 20.5838 51.934 21.5026C52.716 22.9361 54.6173 24.1103 55.0006 25.6505" fill="#E95253"/>
<path d="M1.53333 45.0488C3.54029 45.8084 5.7302 45.9519 7.81999 45.4606C10.7487 45.8571 12.282 46.7721 15.778 47.1686C20.056 47.1686 24.3033 46.7111 28.5507 46.3146C29.9307 46.1926 32.9973 46.0248 34.1627 47.1076C34.8373 47.7328 34.638 49.4256 34.6533 50.3101C32.1186 49.3489 29.4498 48.783 26.7413 48.6326C23.6747 48.6326 20.5007 48.7698 17.388 48.7393C15.2648 48.7455 13.1454 48.5618 11.0553 48.1903C9.10799 47.8243 7.19133 47.3211 5.24399 46.9246C3.83333 46.6196 2.11599 46.3756 1.53333 45.0488Z" fill="#9B5F48"/>
<path d="M28.8727 47.794C28.8727 48.282 28.4433 49.319 28.0447 49.319C27.646 49.319 27.2167 48.2972 27.2167 47.794V46.0707C27.2167 45.5827 27.5233 45.0947 27.922 45.0947C28.1631 45.1314 28.3849 45.2475 28.5517 45.4245C28.7185 45.6015 28.8208 45.8291 28.842 46.0707L28.8727 47.794Z" fill="#969595"/>
<path d="M27.2167 48.0377C27.2167 48.419 26.91 49.212 26.588 49.212C26.266 49.212 25.9594 48.419 25.9594 48.0377V46.6805C25.9594 46.2992 26.1894 45.918 26.5114 45.918C26.6957 45.9465 26.8643 46.0384 26.9875 46.1777C27.1108 46.317 27.181 46.4949 27.186 46.6805L27.2167 48.0377Z" fill="#838383"/>
<path d="M12.006 47.794C12.006 48.282 12.4353 49.319 12.834 49.319C13.2326 49.319 13.662 48.2972 13.662 47.794V46.0707C13.662 45.5827 13.3553 45.0947 12.9566 45.0947C12.7155 45.1314 12.4938 45.2475 12.327 45.4245C12.1601 45.6015 12.0579 45.8291 12.0366 46.0707L12.006 47.794Z" fill="#969595"/>
<path d="M13.662 48.0377C13.662 48.419 13.9687 49.212 14.2907 49.212C14.6127 49.212 14.9193 48.419 14.9193 48.0377V46.6805C14.9193 46.2992 14.6893 45.918 14.3673 45.918C14.1829 45.9465 14.0144 46.0384 13.8911 46.1777C13.7679 46.317 13.6976 46.4949 13.6927 46.6805L13.662 48.0377Z" fill="#838383"/>
<path d="M29.578 14.4571C29.946 13.5878 30.6207 10.8886 28.75 6.23735C28.4127 5.5206 27.5693 3.85835 25.7753 4.71235C25.5147 5.10885 29.0107 7.2896 28.29 14.9756C28.29 14.9756 27.3853 18.1933 29.9153 19.0931C29.5388 18.3019 29.345 17.4369 29.348 16.5616C29.2944 15.852 29.3724 15.1387 29.578 14.4571V14.4571ZM29.4093 14.7621C29.4093 14.7621 29.4093 14.7621 29.4247 14.7621H29.4093Z" fill="#003B55"/>
<path d="M26.542 11.6207C27.2166 15.2197 25.4073 17.2632 21.8193 17.309C19.0593 17.309 15.042 16.7295 14.6587 13.3745C14.3367 10.4617 16.192 6.51198 19.1667 5.62748C23.2913 4.37698 25.898 8.08273 26.5573 11.6207H26.542Z" fill="#F8B829"/>
<path d="M24.3493 11.3616C24.4909 11.7852 24.5208 12.2378 24.4361 12.6761C24.3515 13.1145 24.1551 13.5239 23.8659 13.8652C23.5766 14.2064 23.2041 14.4681 22.784 14.6252C22.3639 14.7823 21.9103 14.8295 21.4666 14.7624C19.7186 14.7624 17.2806 14.3506 17.1273 12.2309C17.0452 11.2667 17.2726 10.3015 17.7768 9.47402C18.281 8.64651 19.036 7.99928 19.9333 7.62537C22.402 6.93912 23.9353 9.15037 24.3033 11.3006L24.3493 11.3616Z" fill="#005D86"/>
<path fill-rule="evenodd" clip-rule="evenodd" d="M23 10.9039C23 11.4721 22.773 12.0171 22.369 12.4189C21.965 12.8207 21.417 13.0465 20.8457 13.0465C20.2743 13.0465 19.7264 12.8207 19.3223 12.4189C18.9183 12.0171 18.6913 11.4721 18.6913 10.9039C18.6913 10.3356 18.9183 9.79061 19.3223 9.38879C19.7264 8.98697 20.2743 8.76123 20.8457 8.76123C21.417 8.76123 21.965 8.98697 22.369 9.38879C22.773 9.79061 23 10.3356 23 10.9039V10.9039Z" fill="#151410"/>
<path fill-rule="evenodd" clip-rule="evenodd" d="M21.1446 9.54683C21.1446 9.92808 20.8073 9.54683 20.8073 9.54683C20.8073 9.54683 21.1446 9.15033 21.1446 9.54683Z" fill="white"/>
<path fill-rule="evenodd" clip-rule="evenodd" d="M19.9333 9.5314C19.7186 9.5314 19.6726 9.76015 19.642 10.0042C19.5842 10.026 19.532 10.0605 19.4894 10.1051C19.4467 10.1497 19.4146 10.2032 19.3955 10.2617C19.3764 10.3202 19.3707 10.3823 19.3789 10.4432C19.387 10.5042 19.4088 10.5626 19.4426 10.6142C19.4426 10.6142 20.4853 9.63815 20.562 9.69915C20.4749 9.62879 20.374 9.57748 20.2656 9.54857C20.1573 9.51966 20.0441 9.51382 19.9333 9.5314V9.5314Z" fill="white"/>
<path d="M54.2033 44.7134C54.3242 44.7105 54.4442 44.7336 54.5553 44.781C54.6665 44.8283 54.766 44.8989 54.8473 44.9879L56.6567 46.9094C53.912 50.3864 48.6527 51.1641 44.6353 49.6849C42.6383 48.8728 40.9337 47.4809 39.7439 45.691C38.5541 43.901 37.9343 41.7959 37.9653 39.6504C37.8002 37.4766 38.2858 35.3029 39.3609 33.4032C40.436 31.5035 42.0525 29.9628 44.0067 28.9754C46.0232 28.0419 48.2722 27.722 50.471 28.0557C52.6698 28.3894 54.7205 29.362 56.3653 30.8511L54.832 32.9251C54.004 34.1146 52.7313 32.8031 51.8727 32.3914C50.5987 31.8073 49.1782 31.6161 47.794 31.8424C46.3732 32.1347 45.0938 32.8966 44.1638 34.0042C43.2339 35.1118 42.7084 36.4998 42.6727 37.9424C42.4469 39.3092 42.5794 40.7109 43.0576 42.0119C43.5357 43.3129 44.3432 44.4692 45.402 45.3691C46.6119 46.1752 48.052 46.5693 49.5062 46.4924C50.9604 46.4154 52.3503 45.8714 53.4673 44.9421C53.68 44.7861 53.9392 44.7055 54.2033 44.7134V44.7134Z" fill="white"/>
<path d="M62.8666 27.6182V50.0967H58.65V27.6182H62.8666Z" fill="white"/>
<path d="M70.6253 34.5566V50.1116H66.4547V34.5566H70.6253Z" fill="white"/>
<path d="M71.1313 30.0428C71.1313 33.2911 65.9487 33.3063 65.9487 30.0428C65.9487 26.7793 71.1313 26.7793 71.1313 30.0428Z" fill="white"/>
<path d="M85.5446 38.0186C84.8853 38.9031 84.18 38.3541 83.444 38.0186C82.5367 37.5092 81.4754 37.3414 80.454 37.5459C78.338 38.0186 77.7246 40.1689 77.6633 42.1209C77.602 44.0729 78.016 46.2994 79.948 47.0772C80.4403 47.2642 80.9654 47.3512 81.4922 47.3328C82.0189 47.3145 82.5366 47.1913 83.0146 46.9704C83.766 46.6196 84.8393 45.2929 85.6213 46.3147L86.8173 47.8397C85.7368 48.978 84.3498 49.7831 82.8218 50.1589C81.2939 50.5348 79.6894 50.4655 78.2 49.9594C76.7319 49.3721 75.4826 48.3474 74.6233 47.0259C73.764 45.7044 73.337 44.1509 73.4006 42.5784C73.2575 40.973 73.6244 39.3634 74.4496 37.9763C75.2749 36.5892 76.5169 35.4946 78.0006 34.8466C79.46 34.2869 81.05 34.1547 82.5826 34.4655C84.1151 34.7762 85.5261 35.5171 86.6486 36.6004L85.5446 38.0186Z" fill="white"/>
<path d="M93.0733 27.6182V40.3824H93.7633C93.9732 40.3923 94.1821 40.3485 94.3701 40.255C94.558 40.1615 94.7187 40.0216 94.8366 39.8487L98.2866 35.2737C98.4455 35.0503 98.6574 34.8694 98.9035 34.747C99.1496 34.6246 99.4223 34.5646 99.6973 34.5722H103.515L99.0533 40.2147C98.7239 40.6641 98.3067 41.0427 97.8266 41.3279C98.2783 41.6698 98.6541 42.1007 98.9306 42.5937L103.761 50.0814H100.004C99.7255 50.101 99.4469 50.0446 99.1983 49.9182C98.9498 49.7919 98.7406 49.6005 98.5933 49.3647L95.0666 43.6612C94.9603 43.4638 94.7966 43.303 94.5969 43.1996C94.3972 43.0962 94.1708 43.0551 93.9473 43.0817H93.0733V50.0967H88.9333V27.6182H93.0733Z" fill="white"/>
<path d="M109.618 27.6182V40.3824H110.308C110.518 40.3923 110.727 40.3484 110.915 40.255C111.103 40.1615 111.263 40.0216 111.381 39.8487L114.831 35.2737C114.99 35.0503 115.202 34.8694 115.448 34.747C115.694 34.6246 115.967 34.5646 116.242 34.5722H120.06L115.567 40.2452C115.238 40.6946 114.821 41.0732 114.341 41.3584C114.792 41.7003 115.168 42.1312 115.445 42.6242L120.275 50.1119H116.533C116.255 50.1315 115.976 50.0751 115.728 49.9487C115.479 49.8224 115.27 49.631 115.123 49.3952L111.611 43.6764C111.505 43.4791 111.341 43.3182 111.142 43.2148C110.942 43.1115 110.716 43.0704 110.492 43.0969H109.618V50.1119H105.432V27.6182H109.618Z" fill="white"/>
<path d="M128.033 54.2751C127.926 54.5417 127.736 54.7671 127.49 54.9181C127.244 55.0691 126.956 55.1377 126.669 55.1139H123.602L126.515 48.8004L120.244 34.4959H123.909C124.157 34.4846 124.402 34.5505 124.611 34.6844C124.82 34.8183 124.982 35.0136 125.074 35.2431L128.049 42.7004C128.263 43.29 128.447 43.8797 128.601 44.4694C128.785 43.8746 128.999 43.2799 129.229 42.6851L131.989 35.2584C132.081 35.0351 132.239 34.8445 132.441 34.7113C132.643 34.5781 132.881 34.5083 133.124 34.5111H136.467L128.033 54.2751Z" fill="white"/>
</svg>
