<svg width="179" height="44" viewBox="0 0 179 44" fill="none" xmlns="http://www.w3.org/2000/svg">
<path d="M64.0943 26.8802C62.3298 26.8802 61.6161 25.6407 61.6161 23.4911V17.5457H66.731V15.2798H61.6161V11.484H59.138V23.7235C59.138 27.2094 60.387 29.146 63.5193 29.146C65.0657 29.146 66.3345 28.6038 67.0878 28.0034L66.3147 26.1249C65.7992 26.4735 65.0657 26.8802 64.0943 26.8802ZM74.7799 14.97C73.0353 14.97 71.37 15.4541 70.1211 16.2094L70.7753 18.146C71.8855 17.565 72.9164 17.139 74.6213 17.139C77.377 17.139 77.7933 18.9013 77.7933 21.4383C76.8616 20.7798 75.4143 20.5668 74.324 20.5668C71.3106 20.5668 69.0505 22.1161 69.0505 24.9048C69.0505 27.5386 70.7951 29.1073 73.3327 29.1073C75.6324 29.1073 76.9607 28.1777 77.7933 27.1319V28.8943H80.1327V20.5281C80.1327 17.0034 78.7449 14.97 74.7799 14.97ZM77.7735 25.1759C77.0598 25.9893 76.0091 26.9383 74.1852 26.9383C72.5794 26.9383 71.6674 26.0862 71.6674 24.7886C71.6674 23.22 73.1543 22.5421 74.6412 22.5421C75.8505 22.5421 76.9012 22.852 77.7735 23.4524V25.1759ZM91.2942 14.97C89.3711 14.97 87.5076 15.7833 86.556 16.8872V15.2798H84.0779V34.9752H86.556V28.2745C87.5472 28.9136 89.0143 29.2041 90.5012 29.2041C94.8825 29.2041 97.7571 26.0281 97.7571 21.8643C97.7373 17.8555 95.2592 14.97 91.2942 14.97ZM90.2633 26.9383C88.935 26.9383 87.7851 26.6865 86.5362 25.8731V19.1143C87.4085 18.0492 88.9152 17.2358 90.5606 17.2358C93.4353 17.2358 95.0807 19.2112 95.0807 21.9612C95.1006 24.8467 93.237 26.9383 90.2633 26.9383ZM113.657 14.9893L109.573 15.9576C108.621 15.3186 107.412 14.9506 106.044 14.9506C102.535 14.9506 100.334 17.2164 100.334 19.9471C100.334 21.9418 101.484 23.646 103.467 24.4207C103.209 24.7305 103.09 25.1566 103.09 25.5633C103.09 25.9506 103.189 26.3766 103.427 26.6865C100.751 27.2288 98.9664 28.6231 98.9664 30.8309C98.9664 33.7939 102 35.1689 106.064 35.1689C110.128 35.1689 113.161 33.7358 113.161 30.8309C113.161 27.8678 110.128 26.4347 106.064 26.4347C105.786 26.4347 105.509 26.4735 105.231 26.4735C105.053 26.2217 104.954 25.8925 104.954 25.5633C104.954 25.3115 104.993 25.0404 105.112 24.808C105.429 24.8467 105.727 24.8467 106.044 24.8467C109.494 24.8467 111.754 22.6583 111.754 19.9471C111.754 19.095 111.536 18.2816 111.099 17.5844L113.736 16.9453L113.657 14.9893ZM106.064 28.4488C109.038 28.4488 110.842 29.359 110.842 30.8696C110.842 32.4189 108.958 33.2323 106.064 33.2323C103.189 33.2323 101.286 32.3802 101.286 30.8696C101.286 29.359 103.09 28.4488 106.064 28.4488ZM106.044 22.9101C104.002 22.9101 102.674 21.6707 102.674 19.9664C102.674 18.2622 104.002 16.9453 106.044 16.9453C108.126 16.9453 109.414 18.2816 109.414 19.9664C109.414 21.7288 107.987 22.9101 106.044 22.9101ZM122.082 14.97C117.503 14.97 114.886 18.1266 114.886 22.0967C114.886 26.396 117.84 29.2235 122.36 29.2235C124.224 29.2235 126.246 28.6425 127.594 27.4418L126.821 25.5245C125.928 26.3379 124.342 26.9576 122.538 26.9576C119.803 26.9576 117.879 25.4471 117.661 22.8714H128.387C128.486 22.4453 128.545 21.9031 128.545 21.2446C128.545 17.4488 125.671 14.97 122.082 14.97ZM117.523 20.8766C117.8 18.7851 119.406 17.2358 121.963 17.2358C124.382 17.2358 125.869 18.6302 125.988 20.8766H117.523ZM134.215 16.8678V15.2605H131.737V28.8943H134.215V19.2305C134.751 18.2235 135.524 17.2939 137.13 17.2939C137.962 17.2939 138.339 17.4101 139.013 17.8168L139.885 15.5509C139.429 15.2217 138.854 15.0281 137.724 15.0281C135.94 15.0281 134.929 15.8414 134.215 16.8678ZM142.522 28.8943H145V15.2605H142.522V28.8943ZM143.83 8.69531C142.958 8.69531 142.225 9.2763 142.225 10.1478C142.225 11.1548 142.978 11.7164 143.83 11.7164C144.604 11.7164 145.357 11.1355 145.357 10.1478C145.337 9.2763 144.604 8.69531 143.83 8.69531ZM156.459 15.0281C154.635 15.0281 152.871 15.8995 151.899 16.9453V15.2798H149.421V28.9136H151.899V19.0756C152.791 18.0686 154.258 17.3133 155.844 17.3133C158.441 17.3133 159.79 18.6495 159.79 21.4964V28.9136H162.268V21.0316C162.268 16.7516 160.087 15.0281 156.459 15.0281ZM179 21.2059C179 17.4488 176.125 14.97 172.517 14.97C167.938 14.97 165.321 18.1266 165.321 22.0967C165.321 26.396 168.275 29.2235 172.795 29.2235C174.658 29.2235 176.68 28.6425 178.029 27.4418L177.255 25.5245C176.363 26.3379 174.777 26.9576 172.973 26.9576C170.237 26.9576 168.314 25.4471 168.096 22.8714H178.822C178.941 22.4259 179 21.8837 179 21.2059ZM167.957 20.8766C168.235 18.7851 169.841 17.2358 172.398 17.2358C174.817 17.2358 176.304 18.6302 176.423 20.8766H167.957Z" fill="white"/>
<path d="M44.9433 20.8187C44.9433 20.7799 44.9433 20.7218 44.9235 20.6831C44.7649 18.0687 44.1503 15.5898 43.1392 13.2852C40.899 25.7764 29.7177 35.2465 16.2763 35.2465C11.0227 35.2465 6.1061 33.794 1.94285 31.2764C2.16093 31.7412 2.39883 32.206 2.65655 32.6514C2.65655 32.6514 2.65655 32.6514 2.65655 32.6708C2.91428 33.0968 3.172 33.5229 3.44955 33.9489C3.46938 33.9683 3.46938 33.9877 3.4892 34.007C4.0443 34.8398 4.65888 35.6144 5.3131 36.3697C5.35275 36.4085 5.37258 36.4472 5.41223 36.4859C6.06645 37.2218 6.78015 37.8996 7.51368 38.5387C7.57315 38.5775 7.6128 38.6162 7.67228 38.6743C8.4058 39.294 9.1988 39.875 10.0116 40.3979C10.0711 40.4366 10.1504 40.4754 10.2297 40.5335C10.6064 40.7658 10.9831 40.9982 11.3796 41.2113C11.4192 41.2306 11.4589 41.25 11.4985 41.2887C11.9148 41.5211 12.351 41.7342 12.7871 41.9278C12.8664 41.9665 12.9457 42.0053 13.025 42.044C13.4017 42.2183 13.7784 42.3732 14.1749 42.5088C14.2542 42.5475 14.3533 42.5669 14.4326 42.6056C14.8886 42.7606 15.3446 42.9155 15.8005 43.0511C15.8798 43.0704 15.9591 43.0898 16.0583 43.1285C16.4548 43.2447 16.8513 43.3416 17.2478 43.4384C17.3667 43.4577 17.4658 43.4965 17.5848 43.5158C18.0606 43.6127 18.5364 43.7095 19.0122 43.7676C19.0717 43.7676 19.1311 43.787 19.2104 43.787C19.6466 43.8451 20.0629 43.8838 20.4991 43.9225C20.6378 43.9419 20.7568 43.9419 20.8956 43.9419C21.3912 43.9806 21.8868 44 22.4023 44C34.8722 44 44.9829 34.162 44.9829 22.0194C44.9631 21.5739 44.9631 21.206 44.9433 20.8187ZM39.4121 7.53345C38.0442 6.00352 36.4384 4.64789 34.6739 3.52465C30.8874 8.05634 25.0985 10.9613 18.6157 10.9613C13.8775 10.9613 9.516 9.41197 6.0268 6.79753C2.81515 10.1285 0.6344 14.3891 0 19.1532C4.22273 21.8063 9.23845 23.3363 14.6309 23.3363C25.713 23.3363 35.2489 16.8486 39.4121 7.53345ZM30.6891 1.52993C28.1119 0.542254 25.3165 0 22.3824 0C19.0518 0 15.8798 0.716549 13.0449 1.97535C15.6221 2.76937 18.358 3.21479 21.2128 3.21479C24.5434 3.19542 27.7352 2.59507 30.6891 1.52993Z" fill="white"/>
</svg>
